<?xml version="1.0" encoding="UTF-8"?>
<!DOCTYPE svg PUBLIC "-//W3C//DTD SVG 1.1//EN" "http://www.w3.org/Graphics/SVG/1.1/DTD/svg11.dtd">
<svg xmlns="http://www.w3.org/2000/svg" version="1.1" width="512px" height="512px" style="shape-rendering:geometricPrecision; text-rendering:geometricPrecision; image-rendering:optimizeQuality; fill-rule:evenodd; clip-rule:evenodd" xmlns:xlink="http://www.w3.org/1999/xlink">
<g><path style="opacity:0.996" fill="#071820" d="M 455.5,313.5 C 453.692,313.509 452.025,313.009 450.5,312C 449.253,310.054 447.92,308.22 446.5,306.5C 429.833,316.167 413.167,325.833 396.5,335.5C 395.334,355.825 395.167,376.158 396,396.5C 414.582,385.793 433.082,374.959 451.5,364C 452.793,363.51 454.127,363.343 455.5,363.5C 463.912,367.025 464.579,371.858 457.5,378C 392.833,415.333 328.167,452.667 263.5,490C 258.994,492.814 254.327,493.147 249.5,491C 183.664,452.581 117.664,414.414 51.5,376.5C 50.4164,375.335 49.5831,374.002 49,372.5C 48.3333,294.5 48.3333,216.5 49,138.5C 49.5831,136.998 50.4164,135.665 51.5,134.5C 60.4742,129.097 69.6408,124.097 79,119.5C 81.4432,120.03 83.6099,121.03 85.5,122.5C 85.8158,125.978 85.3158,129.312 84,132.5C 80.0856,134.54 76.2522,136.707 72.5,139C 71.5494,139.718 71.3828,140.551 72,141.5C 87.2486,150.207 102.415,159.04 117.5,168C 119.65,169.59 121.983,170.257 124.5,170C 141.331,160.419 157.998,150.585 174.5,140.5C 157.998,130.415 141.331,120.581 124.5,111C 123.5,110.333 122.5,110.333 121.5,111C 117.323,113.838 112.823,116.005 108,117.5C 105.458,116.795 103.292,115.461 101.5,113.5C 101.337,111.143 101.503,108.81 102,106.5C 103.558,104.641 105.391,103.141 107.5,102C 154.833,74.6667 202.167,47.3333 249.5,20C 254.327,17.8526 258.994,18.1859 263.5,21C 325.67,57.2526 388.003,93.2526 450.5,129C 454.278,131.112 457.778,133.612 461,136.5C 462.658,193.751 462.992,251.084 462,308.5C 460.809,311.534 458.642,313.201 455.5,313.5 Z"/></g>
<g><path style="opacity:1" fill="#3aa7fa" d="M 254.5,33.5 C 272.438,43.1377 290.105,53.3043 307.5,64C 290.833,73.6667 274.167,83.3333 257.5,93C 256.167,93.6667 254.833,93.6667 253.5,93C 236.833,83.3333 220.167,73.6667 203.5,64C 220.563,53.8073 237.563,43.6407 254.5,33.5 Z"/></g>
<g><path style="opacity:1" fill="#3aa7fa" d="M 187.5,72.5 C 188.873,72.3433 190.207,72.51 191.5,73C 208.167,82.6667 224.833,92.3333 241.5,102C 224,112.167 206.5,122.333 189,132.5C 171.751,122.459 154.584,112.293 137.5,102C 154.076,91.9048 170.743,82.0714 187.5,72.5 Z"/></g>
<g><path style="opacity:1" fill="#3aa7fa" d="M 319.5,72.5 C 323.105,72.7986 326.439,73.9653 329.5,76C 344.167,84.6667 358.833,93.3333 373.5,102C 357.999,111.585 342.332,120.918 326.5,130C 324.598,131.301 322.598,131.968 320.5,132C 303.665,121.748 286.665,111.748 269.5,102C 286.597,92.7018 303.263,82.8684 319.5,72.5 Z"/></g>
<g><path style="opacity:1" fill="#3ba7fa" d="M 85.5,122.5 C 91.1298,120.019 96.4632,117.019 101.5,113.5C 103.292,115.461 105.458,116.795 108,117.5C 112.823,116.005 117.323,113.838 121.5,111C 122.5,110.333 123.5,110.333 124.5,111C 141.331,120.581 157.998,130.415 174.5,140.5C 157.998,150.585 141.331,160.419 124.5,170C 121.983,170.257 119.65,169.59 117.5,168C 102.415,159.04 87.2486,150.207 72,141.5C 71.3828,140.551 71.5494,139.718 72.5,139C 76.2522,136.707 80.0856,134.54 84,132.5C 85.3158,129.312 85.8158,125.978 85.5,122.5 Z"/></g>
<g><path style="opacity:1" fill="#3aa7fa" d="M 254.5,110.5 C 272.599,119.717 290.265,129.717 307.5,140.5C 290.425,150.899 273.092,160.899 255.5,170.5C 237.908,160.899 220.575,150.899 203.5,140.5C 220.539,130.437 237.539,120.437 254.5,110.5 Z"/></g>
<g><path style="opacity:1" fill="#3aa7fa" d="M 386.5,110.5 C 389.016,110.755 391.35,111.589 393.5,113C 408.337,121.919 423.337,130.586 438.5,139C 439.451,139.718 439.617,140.551 439,141.5C 421.99,151.183 404.99,160.85 388,170.5C 370.604,160.885 353.437,150.885 336.5,140.5C 353.23,130.474 369.897,120.474 386.5,110.5 Z"/></g>
<g><path style="opacity:1" fill="#3aa7fa" d="M 188.5,148.5 C 206.279,158.439 223.945,168.606 241.5,179C 224.833,188.667 208.167,198.333 191.5,208C 187.887,208.208 184.554,207.208 181.5,205C 166.833,196.333 152.167,187.667 137.5,179C 154.563,168.807 171.563,158.641 188.5,148.5 Z"/></g>
<g><path style="opacity:1" fill="#3aa7fa" d="M 320.5,148.5 C 338.438,158.138 356.105,168.304 373.5,179C 357.092,189.066 340.426,198.733 323.5,208C 322.167,208.667 320.833,208.667 319.5,208C 303.092,197.934 286.426,188.267 269.5,179C 286.894,169.311 303.894,159.144 320.5,148.5 Z"/></g>
<g><path style="opacity:1" fill="#362223" d="M 64.5,153.5 C 63.5029,173.326 63.1695,193.326 63.5,213.5C 62.172,193.329 62.172,172.996 63.5,152.5C 64.1067,152.624 64.44,152.957 64.5,153.5 Z"/></g>
<g><path style="opacity:1" fill="#f54f2e" d="M 64.5,153.5 C 81.6625,162.914 98.6625,172.58 115.5,182.5C 115.83,202.674 115.497,222.674 114.5,242.5C 97.6625,232.58 80.6625,222.914 63.5,213.5C 63.1695,193.326 63.5029,173.326 64.5,153.5 Z"/></g>
<g><path style="opacity:1" fill="#f9d42d" d="M 446.5,153.5 C 447.497,173.326 447.83,193.326 447.5,213.5C 430.663,223.42 413.663,233.086 396.5,242.5C 395.503,222.674 395.17,202.674 395.5,182.5C 412.337,172.58 429.337,162.914 446.5,153.5 Z"/></g>
<g><path style="opacity:1" fill="#353c23" d="M 446.5,153.5 C 446.56,152.957 446.893,152.624 447.5,152.5C 448.828,172.996 448.828,193.329 447.5,213.5C 447.83,193.326 447.497,173.326 446.5,153.5 Z"/></g>
<g><path style="opacity:1" fill="#342223" d="M 115.5,182.5 C 116.828,202.671 116.828,223.004 115.5,243.5C 114.893,243.376 114.56,243.043 114.5,242.5C 115.497,222.674 115.83,202.674 115.5,182.5 Z"/></g>
<g><path style="opacity:1" fill="#373e22" d="M 395.5,182.5 C 395.17,202.674 395.503,222.674 396.5,242.5C 396.44,243.043 396.107,243.376 395.5,243.5C 394.172,223.004 394.172,202.671 395.5,182.5 Z"/></g>
<g><path style="opacity:1" fill="#3aa7fa" d="M 253.5,187.5 C 255.655,187.372 257.655,187.872 259.5,189C 275.5,198.333 291.5,207.667 307.5,217C 290.138,227.839 272.472,237.839 254.5,247C 237.335,237.252 220.335,227.252 203.5,217C 220.395,207.392 237.061,197.559 253.5,187.5 Z"/></g>
<g><path style="opacity:1" fill="#c7442c" d="M 131.5,192.5 C 130.503,211.993 130.17,231.66 130.5,251.5C 129.172,231.663 129.172,211.663 130.5,191.5C 131.107,191.624 131.44,191.957 131.5,192.5 Z"/></g>
<g><path style="opacity:1" fill="#c8ae2b" d="M 379.5,192.5 C 379.56,191.957 379.893,191.624 380.5,191.5C 381.828,211.663 381.828,231.663 380.5,251.5C 380.83,231.66 380.497,211.993 379.5,192.5 Z"/></g>
<g><path style="opacity:1" fill="#f54f2e" d="M 131.5,192.5 C 148.502,201.665 165.169,211.332 181.5,221.5C 181.83,241.34 181.497,261.007 180.5,280.5C 163.471,271.323 146.804,261.657 130.5,251.5C 130.17,231.66 130.503,211.993 131.5,192.5 Z"/></g>
<g><path style="opacity:1" fill="#f9d42d" d="M 379.5,192.5 C 380.497,211.993 380.83,231.66 380.5,251.5C 364.196,261.657 347.529,271.323 330.5,280.5C 329.503,260.674 329.17,240.674 329.5,220.5C 346.194,211.155 362.861,201.821 379.5,192.5 Z"/></g>
<g><path style="opacity:1" fill="#943828" d="M 181.5,221.5 C 182.828,241.337 182.828,261.337 181.5,281.5C 180.893,281.376 180.56,281.043 180.5,280.5C 181.497,261.007 181.83,241.34 181.5,221.5 Z"/></g>
<g><path style="opacity:1" fill="#988828" d="M 329.5,220.5 C 329.17,240.674 329.503,260.674 330.5,280.5C 330.44,281.043 330.107,281.376 329.5,281.5C 328.172,261.004 328.172,240.671 329.5,220.5 Z"/></g>
<g><path style="opacity:1" fill="#f54f2e" d="M 114.5,258.5 C 115.825,278.931 115.825,299.264 114.5,319.5C 97.8608,309.845 81.1941,300.178 64.5,290.5C 63.3336,270.175 63.1669,249.842 64,229.5C 80.6161,239.558 97.4494,249.224 114.5,258.5 Z"/></g>
<g><path style="opacity:1" fill="#f54f2e" d="M 255.5,281.5 C 255.5,289.5 255.5,297.5 255.5,305.5C 252.737,305.744 250.571,307.077 249,309.5C 248.824,312.882 248.324,316.215 247.5,319.5C 230.833,309.833 214.167,300.167 197.5,290.5C 196.334,270.175 196.167,249.842 197,229.5C 213.751,239.459 230.585,249.293 247.5,259C 248.312,265.085 248.812,271.252 249,277.5C 250.312,280.238 252.478,281.572 255.5,281.5 Z"/></g>
<g><path style="opacity:1" fill="#f9d42d" d="M 313.5,230.5 C 314.497,249.993 314.83,269.66 314.5,289.5C 297.728,299.726 280.728,309.726 263.5,319.5C 262.676,316.215 262.176,312.882 262,309.5C 260.362,307.266 258.195,305.933 255.5,305.5C 255.5,297.5 255.5,289.5 255.5,281.5C 258.642,281.201 260.809,279.534 262,276.5C 262.19,270.584 262.69,264.751 263.5,259C 280.059,249.223 296.725,239.723 313.5,230.5 Z"/></g>
<g><path style="opacity:1" fill="#676425" d="M 313.5,230.5 C 313.56,229.957 313.893,229.624 314.5,229.5C 315.828,249.663 315.828,269.663 314.5,289.5C 314.83,269.66 314.497,249.993 313.5,230.5 Z"/></g>
<g><path style="opacity:1" fill="#f9d42d" d="M 396.5,319.5 C 395.503,299.674 395.17,279.674 395.5,259.5C 412.721,249.638 429.888,239.638 447,229.5C 447.833,249.842 447.666,270.175 446.5,290.5C 429.806,300.178 413.139,309.845 396.5,319.5 Z"/></g>
<g><path style="opacity:1" fill="#332122" d="M 114.5,258.5 C 115.832,268.478 116.499,278.811 116.5,289.5C 116.167,299.833 115.833,310.167 115.5,320.5C 114.893,320.376 114.56,320.043 114.5,319.5C 115.825,299.264 115.825,278.931 114.5,258.5 Z"/></g>
<g><path style="opacity:1" fill="#2e3722" d="M 395.5,259.5 C 395.17,279.674 395.503,299.674 396.5,319.5C 396.44,320.043 396.107,320.376 395.5,320.5C 394.172,300.004 394.172,279.671 395.5,259.5 Z"/></g>
<g><path style="opacity:1" fill="#c7ad2b" d="M 380.5,328.5 C 381.154,308.472 380.488,288.805 378.5,269.5C 379.172,268.733 380.005,268.066 381,267.5C 381.829,288.004 381.663,308.337 380.5,328.5 Z"/></g>
<g><path style="opacity:1" fill="#f44f2e" d="M 181.5,297.5 C 181.83,317.674 181.497,337.674 180.5,357.5C 163.861,347.845 147.194,338.178 130.5,328.5C 129.334,308.175 129.167,287.842 130,267.5C 147.112,277.638 164.279,287.638 181.5,297.5 Z"/></g>
<g><path style="opacity:1" fill="#f7d32d" d="M 378.5,269.5 C 380.488,288.805 381.154,308.472 380.5,328.5C 363.279,338.362 346.112,348.362 329,358.5C 328.167,338.158 328.334,317.825 329.5,297.5C 345.698,287.902 362.031,278.569 378.5,269.5 Z"/></g>
<g><path style="opacity:1" fill="#993a28" d="M 181.5,297.5 C 182.828,317.671 182.828,338.004 181.5,358.5C 180.893,358.376 180.56,358.043 180.5,357.5C 181.497,337.674 181.83,317.674 181.5,297.5 Z"/></g>
<g><path style="opacity:1" fill="#f54f2e" d="M 63.5,306.5 C 80.6078,315.89 97.6078,325.556 114.5,335.5C 115.666,355.825 115.833,376.158 115,396.5C 98,386.5 81,376.5 64,366.5C 63.5,346.503 63.3334,326.503 63.5,306.5 Z"/></g>
<g><path style="opacity:1" fill="#f54f2e" d="M 196.5,306.5 C 213.635,315.902 230.635,325.568 247.5,335.5C 248.666,355.825 248.833,376.158 248,396.5C 231.411,386.454 214.578,376.787 197.5,367.5C 196.5,347.178 196.167,326.844 196.5,306.5 Z"/></g>
<g><path style="opacity:1" fill="#f9d42d" d="M 312.5,306.5 C 313.832,316.311 314.499,326.477 314.5,337C 314.167,347.167 313.833,357.333 313.5,367.5C 296.748,377.293 279.915,386.96 263,396.5C 262.167,376.158 262.334,355.825 263.5,335.5C 280.061,326.059 296.395,316.392 312.5,306.5 Z"/></g>
<g><path style="opacity:1" fill="#f9d42d" d="M 455.5,313.5 C 455.5,317.167 455.5,320.833 455.5,324.5C 448.054,326.937 445.387,332.104 447.5,340C 447.399,344.281 447.899,348.448 449,352.5C 450.734,354.451 452.901,355.451 455.5,355.5C 455.5,358.167 455.5,360.833 455.5,363.5C 454.127,363.343 452.793,363.51 451.5,364C 433.082,374.959 414.582,385.793 396,396.5C 395.167,376.158 395.334,355.825 396.5,335.5C 413.167,325.833 429.833,316.167 446.5,306.5C 447.92,308.22 449.253,310.054 450.5,312C 452.025,313.009 453.692,313.509 455.5,313.5 Z"/></g>
<g><path style="opacity:0.983" fill="#0b1920" d="M 455.5,324.5 C 457.679,324.84 459.512,325.84 461,327.5C 462.563,335.087 462.896,342.754 462,350.5C 460.809,353.534 458.642,355.201 455.5,355.5C 452.901,355.451 450.734,354.451 449,352.5C 447.899,348.448 447.399,344.281 447.5,340C 445.387,332.104 448.054,326.937 455.5,324.5 Z"/></g>
<g><path style="opacity:1" fill="#be422a" d="M 131.5,345.5 C 130.503,365.326 130.17,385.326 130.5,405.5C 129.172,385.329 129.172,364.996 130.5,344.5C 131.107,344.624 131.44,344.957 131.5,345.5 Z"/></g>
<g><path style="opacity:1" fill="#f34f2e" d="M 131.5,345.5 C 148.224,355.281 165.058,364.948 182,374.5C 182.833,394.508 182.666,414.508 181.5,434.5C 164.635,424.568 147.635,414.902 130.5,405.5C 130.17,385.326 130.503,365.326 131.5,345.5 Z"/></g>
<g><path style="opacity:1" fill="#f7d32d" d="M 379.5,345.5 C 380.497,365.326 380.83,385.326 380.5,405.5C 363.69,415.408 346.69,425.074 329.5,434.5C 328.334,414.508 328.167,394.508 329,374.5C 345.616,364.442 362.449,354.776 379.5,345.5 Z"/></g>
<g><path style="opacity:1" fill="#cdb22b" d="M 379.5,345.5 C 379.56,344.957 379.893,344.624 380.5,344.5C 381.828,364.996 381.828,385.329 380.5,405.5C 380.83,385.326 380.497,365.326 379.5,345.5 Z"/></g>
<g><path style="opacity:1" fill="#662d25" d="M 197.5,383.5 C 196.503,403.326 196.17,423.326 196.5,443.5C 195.172,423.329 195.172,402.996 196.5,382.5C 197.107,382.624 197.44,382.957 197.5,383.5 Z"/></g>
<g><path style="opacity:1" fill="#f54f2e" d="M 197.5,383.5 C 214.224,393.281 231.058,402.948 248,412.5C 248.667,432.833 248.667,453.167 248,473.5C 230.888,463.362 213.721,453.362 196.5,443.5C 196.17,423.326 196.503,403.326 197.5,383.5 Z"/></g>
<g><path style="opacity:1" fill="#f9d42d" d="M 313.5,383.5 C 314.497,403.326 314.83,423.326 314.5,443.5C 297.279,453.362 280.112,463.362 263,473.5C 262.333,453.167 262.333,432.833 263,412.5C 279.942,402.948 296.776,393.281 313.5,383.5 Z"/></g>
<g><path style="opacity:1" fill="#656224" d="M 313.5,383.5 C 313.56,382.957 313.893,382.624 314.5,382.5C 315.828,402.996 315.828,423.329 314.5,443.5C 314.83,423.326 314.497,403.326 313.5,383.5 Z"/></g>
</svg>
